<?xml version="1.0" encoding="utf-8"?>
<!-- Uploaded to: SVG Repo, www.svgrepo.com, Generator: SVG Repo Mixer Tools -->
<svg width="800px" height="800px" viewBox="0 0 64 64" xmlns="http://www.w3.org/2000/svg">
<path d="m53.94 48.87c.42-.42.63-12.79.21-14s-7.15-5.25-7.15-5.25-.37-2.87-.66-5.08-1.65-6.42-5.34-13.54-7.45-9.46-8.29-9.42a9.76 9.76 0 0 0 -5.29 2.79 39.29 39.29 0 0 0 -8.42 13.21 34.31 34.31 0 0 0 -1.93 11.42c-2.34 1.34-7.25 4.71-7.75 5.59s.41 14.71.45 14.91 2.8.3 5.21-1.12a26.51 26.51 0 0 0 5.21-4.71s1.54 3 1.88 3.58 1.41.84 1.41.84.38 1.41.54 1.75 1.13.37 1.13.37.87 3 .92 3.13a7.11 7.11 0 0 0 1.54.21 4.1 4.1 0 0 0 -.79 2.12c0 1.08 1.25 1.75 2.87 2.21a3.6 3.6 0 0 1 2.25 2.12 1 1 0 0 0 .88.25c.41 0 .5-.88 1.87-1.79s3.13-.46 4.42-2-.63-3.5-.63-3.5a3.65 3.65 0 0 0 1.42-.13c.29-.17.1-2.83.1-2.83a10.33 10.33 0 0 0 2.25-.3c.34-.2.13-2.5.13-2.5a2.51 2.51 0 0 0 1-.37 8.62 8.62 0 0 0 1-2.13 7.49 7.49 0 0 0 2.62 2.3c1.9 1.16 6.52 2.29 6.94 1.87zm-36.64 3.23c-.15 0-.4-2-.78-2s-1 1.66-1.06 1.91a12.09 12.09 0 0 0 -2.16.18c-.25.16 0 .41.13.6s1.56.31 1.62.4a18.1 18.1 0 0 1 -.87 1.91c-.06.19.31.31.66.37s1.16-1.21 1.16-1.21.34 1 .44 1.28.62.15.84 0 0-1.88 0-2.1 1.35-.15 1.35-.15.28-.44.15-.75-1.32-.41-1.48-.44zm-8.06 3.16a10.06 10.06 0 0 0 .41-1.26.81.81 0 0 0 -.47-.75c-.25-.06-.66.91-.66.91s-.43-.44-.68-.34 0 1 0 1a3.14 3.14 0 0 0 -.94-.19c-.19.06-.16.28-.16.47s.82.62.82.62-1.07.44-1.25.54.5.75.62.81 1-.72 1-.72.13.84.13 1.06.31.13.56.16.38-1.13.38-1.13a5.81 5.81 0 0 0 1.35.41c.37 0 .28-.31.28-.75s-1.39-.84-1.39-.84zm39.94-2.44s.12-1.16.16-1.35-.16-.21-.47-.21-1.47 1.59-1.57 1.74-1.57-.12-1.68 0a1 1 0 0 0 -.07.81c.13.22.85.34.94.47s-.81 1.81-.81 2.09 1.25 0 1.5-.12a2.34 2.34 0 0 0 .5-.85s.72 1 1.06 1 .6-.18.6-.43-.6-1-.47-1.13a4.62 4.62 0 0 0 .37-.59 7.4 7.4 0 0 1 1.16-.35c.37-.12.22-.53.09-.75s-1.31-.33-1.31-.33zm7.16-2c-2.66.41-4.41 2.31-3.88 4.78a3.21 3.21 0 0 0 3.06 2.69c.41 0 .63-.38.53-.88s-1.25-1-.78-2.9a2.82 2.82 0 0 1 2.57-2.07c.31-.12.34-.34-.1-.93s-.63-.78-1.4-.66zm-47.25-28.82a4.5 4.5 0 0 0 .09 1.78c.25.34 1.5-.78 1.5-.78s1.37.68 1.69.5-.28-1.25-.28-1.25.87-.57.93-1-1.37-.4-1.59-.4-.63-1.75-1-1.66-.45 1.63-.69 1.63c-.41 0-1.59.18-1.62.56s.97.62.97.62zm1.91-10.65c.1.06-.31 1.81.22 1.84s1.34-1.25 1.5-1.34 2 .78 2.38.47-.88-1.56-.88-1.56 1.16-1 .88-1.35-1.5 0-1.69.13-1.35-1.6-1.69-1.38-.25 1.5-.28 1.72-1.54.28-1.63.66 1.09.75 1.19.81zm36.22-.47c.06.13-.72 1.56-.47 1.78s1.81-.84 1.94-.9 1.31 1.56 1.77 1.24-.37-1.66-.37-1.66 1.4-.34 1.4-.72-1.56-.75-1.56-.75-.06-1.62-.38-1.66-1.21 1.29-1.31 1.35-1.91-.5-2 0 .91 1.2.97 1.32zm10.05-3.12c-.06-.16.38-2.25 0-2.44s-1.59 1.4-1.72 1.53-2.31-.71-2.43-.47c-.25.47 1.59 1.19 1.62 1.53s-1 1.6-.62 2 1.65-.56 1.87-.47 1.13 1.22 1.41 1.07-.13-1.5-.1-1.6 1.1-.18 1.1-.47-1.06-.53-1.13-.68zm-2.41 15.15c-.63-.12-1.21 1.71-1.59 1.79s-1.71-.95-1.83-.5 1.08 1.59 1.17 1.75-1.34 1.21-1.09 1.63 1.5-.33 1.75-.29.67 2 1.13 1.75.17-1.92.42-2.09 1.25 0 1.41-.58-1.25-.83-1.37-1 .62-2.37 0-2.46z" fill="#1d1d1b"/>
<path d="m11.23 35.25c.18-.42 5.71-4.13 5.79-3.88a43.84 43.84 0 0 0 .92 6.63c.71 2.42 1.33 4 1.21 4s-2.75-3-3-2.87-.71.71-.58.92 2.66 2.75 2.5 3-1.07 1.15-1.07 1.15a28.82 28.82 0 0 0 -2.23-3.2c-.2 0-.91.75-.75 1s2.25 2.58 2.05 2.91a5 5 0 0 1 -.63.75 18.5 18.5 0 0 0 -1.92-2.21c-.16 0-.79.55-.62.84s1.79 1.71 1.42 2-2.71 1.54-2.71 1.25-.61-11.71-.38-12.29z" fill="#cbe7f5"/>
<path d="m47.27 31.87a25.23 25.23 0 0 1 -.58 7.54c-.92 2.92-1.25 3.59-1.25 3.59a17.92 17.92 0 0 0 3 2.71 9.68 9.68 0 0 0 3.75 1s.13-10.59 0-10.75-4.54-3.88-4.92-4.09z" fill="#cbe7f5"/>
<path d="m49.61 38.83c.25.08 1.21.67 1.29 1s0 1-.17 1a6 6 0 0 1 -1.58-1.09c-.08-.33.46-.91.46-.91z" fill="#1d1d1b"/>
<path d="m48.61 40.79c0-.31 2.54 1.66 2.58 2s0 1.08-.12 1-2.84-1.79-2.84-2.17.38-.79.38-.83z" fill="#1d1d1b"/>
<path d="m47.82 42.7a15 15 0 0 1 3.18 2.46c0 .29.17.75-.2.75a16.39 16.39 0 0 1 -3.42-2.37c-.11-.25.31-.84.44-.84z" fill="#1d1d1b"/>
<path d="m23.9 46.25s-3.46-6.13-4.25-10.46-1.08-9.79.35-14.46a34.62 34.62 0 0 1 3.54-8.5 15.72 15.72 0 0 1 8.88-2.17c5 .25 6.29 1.34 6.62 1.54a43.36 43.36 0 0 1 5.46 13.88 40 40 0 0 1 .13 12.25s-1.29-1.79-1.54-1.71-.67.38-.46.63a17.83 17.83 0 0 1 1.79 2.41 6.75 6.75 0 0 1 -.46 1.25 27.41 27.41 0 0 0 -2-2.62c-.17 0-.79.12-.67.46s2.42 3.16 2.42 3.58a6.69 6.69 0 0 1 -1.33 2.58c-.38.21-3.13.71-3.3 1.09s-.29 1.25 0 1.33 2.46 0 2.46.29.08 1.17 0 1.21a49.85 49.85 0 0 1 -8.88.71c-5.12 0-7.37 0-7.5-.21s-.41-1.25-.25-1.21 2.25.33 3.34.38 1.41 0 1.5-.13a6.56 6.56 0 0 0 -.27-1.37s-4.83-.34-5.58-.75z" fill="#e7413e"/>
<g fill="#1d1d1b">
<path d="m39.15 40.45c0-.24.62-.41.79-.33a12.7 12.7 0 0 1 2.06 2.88c0 .34-.29.8-.58.63a18.05 18.05 0 0 1 -2.27-3.18z"/>
<path d="m37.57 41.2c.2.09 2.79 2.67 2.62 2.92s-.71.67-.83.54-2.63-2.46-2.54-2.79.75-.67.75-.67z"/>
<path d="m35.19 42.58a19.63 19.63 0 0 1 3.21 2.83c0 .21-.42.67-.67.59a18.89 18.89 0 0 1 -3.21-2.67c.05-.25.48-.79.67-.75z"/>
<path d="m33.32 44.25c.21-.22 3.16 2 3.08 2.29s0 .66-.46.58a12.56 12.56 0 0 1 -3.25-2c0-.21.58-.83.63-.87z"/>
<path d="m22.27 19a21.29 21.29 0 0 1 .63-2.88 6.64 6.64 0 0 1 1.1-2.67c.17-.08 1-.29 1-.08a22.37 22.37 0 0 0 -1.29 3.38c-.25 1.37-.12 1.79-.37 2a2.91 2.91 0 0 1 -1.07.25z"/>
</g>
<path d="m24.86 10.29c.16-.38 4.79-6.75 7.33-6.88s5.67 6.79 5.33 6.84a11.93 11.93 0 0 0 -6.58-.8c-4.46.55-6.08.84-6.08.84z" fill="#cbe7f5"/>
<path d="m27.86 8.5c-.28-.12 2.5-3.25 3-3.3s.42.38.54.75-1.21 1.21-1.75 1.88-.5.83-.79.92a2.22 2.22 0 0 1 -1-.25z" fill="#1d1d1b"/>
<path d="m24.52 20.25c3.29-3.17 9.75-4.3 13.67-1s5.13 7.46 3.92 12.37-6.25 7.63-11.92 6.5a10.83 10.83 0 0 1 -8.83-7.91 10.71 10.71 0 0 1 3.16-9.96z" fill="#1d1d1b"/>
<path d="m25.26 21c2.95-2.85 8.77-3.87 12.29-.87a10.32 10.32 0 0 1 3.53 11.14c-1.08 4.43-5.63 6.87-10.72 5.86a9.77 9.77 0 0 1 -7.95-7.13 9.6 9.6 0 0 1 2.85-9z" fill="#fab900"/>
<path d="m27.65 23.49c1.88-1.82 5.58-2.46 7.83-.55a6.57 6.57 0 0 1 2.24 7.06c-.69 2.82-3.58 4.37-6.83 3.73a6.24 6.24 0 0 1 -5.06-4.54 6.13 6.13 0 0 1 1.82-5.7z" fill="#1d1d1b"/>
<path d="m28.9 24.79a4.34 4.34 0 0 1 5.49-.39 4.62 4.62 0 0 1 1.58 5c-.49 2-2.52 3.06-4.79 2.61a4.39 4.39 0 0 1 -3.56-3.18 4.3 4.3 0 0 1 1.28-4.04z" fill="#85bfe9"/>
<path d="m31.59 18.83a1.29 1.29 0 0 1 1.6 1.67c-.33.95-1.92.91-2.29.45a1.32 1.32 0 0 1 .69-2.12z" fill="#1d1d1b"/>
<path d="m31.78 19.51a.55.55 0 0 1 .69.71c-.14.41-.82.39-1 .2a.57.57 0 0 1 .31-.91z" fill="#f2910d"/>
<path d="m36.82 20.91a1.29 1.29 0 0 1 1.6 1.67c-.33 1-1.92.92-2.29.46a1.32 1.32 0 0 1 .69-2.13z" fill="#1d1d1b"/>
<path d="m37 21.59a.55.55 0 0 1 .69.71c-.14.41-.82.4-1 .2a.57.57 0 0 1 .31-.91z" fill="#f2910d"/>
<path d="m39.48 26.16a1.29 1.29 0 0 1 1.61 1.67c-.34 1-1.92.92-2.3.46a1.33 1.33 0 0 1 .69-2.13z" fill="#1d1d1b"/>
<path d="m39.68 26.84a.55.55 0 0 1 .69.71.67.67 0 0 1 -1 .2.57.57 0 0 1 .31-.91z" fill="#f2910d"/>
<path d="m38.11 31.7a1.29 1.29 0 0 1 1.6 1.67c-.33 1-1.92.92-2.29.46a1.33 1.33 0 0 1 .69-2.13z" fill="#1d1d1b"/>
<path d="m38.31 32.38a.55.55 0 0 1 .68.71c-.14.41-.82.4-1 .2a.57.57 0 0 1 .32-.91z" fill="#f2910d"/>
<path d="m33.4 34.43a1.29 1.29 0 0 1 1.6 1.67c-.33 1-1.91.92-2.29.46a1.33 1.33 0 0 1 .69-2.13z" fill="#1d1d1b"/>
<path d="m33.6 35.11a.54.54 0 0 1 .68.71c-.14.41-.82.4-1 .2a.57.57 0 0 1 .32-.91z" fill="#f2910d"/>
<path d="m28.23 33.58a1.29 1.29 0 0 1 1.61 1.67c-.34 1-1.92.91-2.3.45a1.33 1.33 0 0 1 .69-2.12z" fill="#1d1d1b"/>
<path d="m28.43 34.26a.55.55 0 0 1 .69.71.67.67 0 0 1 -1 .2.57.57 0 0 1 .31-.91z" fill="#f2910d"/>
<path d="m24.63 30.27a1.28 1.28 0 0 1 1.6 1.66c-.33 1-1.91.92-2.29.46a1.32 1.32 0 0 1 .69-2.12z" fill="#1d1d1b"/>
<path d="m24.83 30.94a.55.55 0 0 1 .68.72c-.14.41-.82.39-1 .19a.57.57 0 0 1 .32-.91z" fill="#f2910d"/>
<path d="m23.67 25.7a1.29 1.29 0 0 1 1.6 1.67c-.33 1-1.91.92-2.29.46a1.33 1.33 0 0 1 .69-2.13z" fill="#1d1d1b"/>
<path d="m23.87 26.38a.54.54 0 0 1 .68.71c-.14.41-.82.4-1 .2a.57.57 0 0 1 .32-.91z" fill="#f2910d"/>
<path d="m26.19 20.89a1.29 1.29 0 0 1 1.6 1.67c-.33 1-1.91.91-2.29.46a1.33 1.33 0 0 1 .69-2.13z" fill="#1d1d1b"/>
<path d="m26.39 21.57a.55.55 0 0 1 .69.71c-.15.41-.82.39-1 .2a.57.57 0 0 1 .31-.91z" fill="#f2910d"/>
<path d="m26.37 50.47c0-.25 3.12.13 6.81 0s5.72-.37 5.78-.25-.06 1.94-.06 1.94-1.22-.53-6-.16-5.85.6-6 .47a9.82 9.82 0 0 1 -.53-2z" fill="#f2910d"/>
<path d="m28.52 53.41c.12-.06 1.85-.12 1.85-.12a1.51 1.51 0 0 0 .53 1.65c.87.75 1.59.66 1.75 1s.09.69.37.75a.58.58 0 0 0 .63-.19c.15-.18.31-1 .81-1s1.66.32 2.06-.4a3.09 3.09 0 0 0 .22-1.78 4 4 0 0 1 .88 0c.28.06 1.37 1.59.59 2.5s-3.21 1.12-4.47 2.09a9 9 0 0 0 -1.25 1.09 3.7 3.7 0 0 0 -2.31-2c-1.88-.68-2.25-.87-2.28-1.4s.1-1.91.62-2.19z" fill="#ffe19b"/>
<path d="m31.37 53.22a24.41 24.41 0 0 1 4-.25c.28.13.59.91.25 1.13s-1.53.41-1.88.75-.31.5-.47.44a5.32 5.32 0 0 1 -1.37-.82c-.47-.47-.66-1.15-.53-1.25z" fill="#fab900"/>
<path d="m55.93 51.6c.24-.09.5.19.22.44a4.22 4.22 0 0 0 -2 2.37c-.31 1.44.56 2.38.34 2.56s-1.47-.78-1.22-2.46a3.9 3.9 0 0 1 2.66-2.91z" fill="#e6e4da"/>
</svg>